# xmcd
#
# Track frame offsets:
#	150
#	23462
#	45287
#	63518
#	81420
#	113264
#	139453
#	161044
#	176343
#	199772
#	230836
#	251490
#	267997
#	287001
#
# Disc length: 4137 seconds
#
# Revision: 0
# Processed by: cddbd v1.5.2PL0 Copyright (c) Steve Scherf et al.
# Submitted via: EasyCDDAExtractor 11.9.9.666
#
DISCID=bd10270e
DTITLE=Various Artist - 不一樣的方伊琪華麗演唱會CD2
DYEAR=2009
DGENRE=
TTITLE0=方伊琪 - 懷舊
TTITLE1=方伊琪 - 叮嚀
TTITLE2=方伊琪 - 桃李爭春
TTITLE3=方伊琪 - 相思河畔
TTITLE4=方伊琪 - 三年
TTITLE5=方伊琪 - 花心
TTITLE6=李麗霞 - 愛是永恆
TTITLE7=李麗霞 - 哥仔靚
TTITLE8=方伊琪 - 李麗霞 - 燕分飛
TTITLE9=方伊琪 - 百花開勁草
TTITLE10=方伊琪 - 時光消逝
TTITLE11=方伊琪 - 信
TTITLE12=方伊琪 - 歸航
TTITLE13=方伊琪 - 台前幕後
EXTD=
EXTT0=
EXTT1=
EXTT2=
EXTT3=
EXTT4=
EXTT5=
EXTT6=
EXTT7=
EXTT8=
EXTT9=
EXTT10=
EXTT11=
EXTT12=
EXTT13=
PLAYORDER=
